<svg xmlns="http://www.w3.org/2000/svg" width="30" height="30" viewBox="0 0 30 30"><defs><style>.background{fill:#85bef4;}</style></defs><rect class="background" x="0.5" y="0.5" width="29" height="29"/><path d="M29,1V29H1V1H29m1-1H0V30H30V0Z"/><path d="M26.25,14.38A2.5,2.5,0,0,0,25,12.22v-6a1.25,1.25,0,0,0-2-1L19.65,7.93A9.44,9.44,0,0,1,13.75,10H6.25a2.5,2.5,0,0,0-2.5,2.5v3.75a2.5,2.5,0,0,0,2.5,2.5H7.57A8.66,8.66,0,0,0,7.48,20a9.84,9.84,0,0,0,1,4.33A1.22,1.22,0,0,0,9.59,25h2.9a1.24,1.24,0,0,0,1-2,5,5,0,0,1-1-3,4.71,4.71,0,0,1,.17-1.25h1.1a9.44,9.44,0,0,1,5.9,2.07L23,23.48a1.29,1.29,0,0,0,.78.27A1.26,1.26,0,0,0,25,22.5v-6A2.49,2.49,0,0,0,26.25,14.38ZM22.5,19.9l-1.29-1a12,12,0,0,0-7.46-2.62V12.5a12,12,0,0,0,7.46-2.62l1.29-1Z"/></svg>
