<svg xmlns="http://www.w3.org/2000/svg" width="30" height="30" viewBox="0 0 30 30"><defs><style>.background{fill:#85bef4;}</style></defs><rect class="background" x="0.5" y="0.5" width="29" height="29"/><path d="M29,1V29H1V1H29m1-1H0V30H30V0Z"/><path d="M23.31,6a12.6,12.6,0,0,1-4.79,1.24c-2.16,0-4.1-1.41-7.11-1.41a9.6,9.6,0,0,0-3.55.67A2,2,0,0,0,8,5.62,2.11,2.11,0,1,0,4.8,7.69V25.55a.7.7,0,0,0,.71.7h.7a.7.7,0,0,0,.7-.7V21.88a12.13,12.13,0,0,1,5.62-1.25c2.16,0,4.1,1.4,7.12,1.4a10.16,10.16,0,0,0,5.65-1.76,2.1,2.1,0,0,0,.95-1.76V8A2.11,2.11,0,0,0,23.31,6Zm.83,12.49a8.32,8.32,0,0,1-4.49,1.4c-2.64,0-4.49-1.4-7.12-1.4a15.17,15.17,0,0,0-5.62,1.05V9.38A8.28,8.28,0,0,1,11.41,8C14,8,15.89,9.38,18.52,9.38A15.09,15.09,0,0,0,24.14,8Z"/><circle cx="11.13" cy="11.4" r="1.54"/><path d="M18.52,12.07a.5.5,0,0,0-.69-.07c-1.67,1.45-2.51,1.9-4.18,3.31a22.71,22.71,0,0,0-1.6-1.73.48.48,0,0,0-.69.06,17.1,17.1,0,0,0-1.6,2.08v1.94c4.66-2.25,7,2.26,11.65,0V14.43A9.82,9.82,0,0,1,18.52,12.07Z"/></svg>
