<svg xmlns="http://www.w3.org/2000/svg" width="30" height="30" viewBox="0 0 30 30"><defs><style>.background{fill:#85bef4;}</style></defs><rect class="background" x="0.5" y="0.5" width="29" height="29"/><path d="M29,1V29H1V1H29m1-1H0V30H30V0Z"/><path d="M24.64,3.75H5.36A1.61,1.61,0,0,0,3.75,5.36V24.64a1.61,1.61,0,0,0,1.61,1.61H24.64a1.61,1.61,0,0,0,1.61-1.61V5.36A1.61,1.61,0,0,0,24.64,3.75Zm-.8,20.09H6.16V20.62H23.84Zm0-5.63H23l-4.88-6.07a1,1,0,0,0-1.5,0l-3.18,4-1.66-2.29a1,1,0,0,0-1.67,0L7,18.21h-.8v-12H23.84ZM11,11a1.61,1.61,0,1,0-1.6-1.6A1.61,1.61,0,0,0,11,11Z"/></svg>
