<svg xmlns="http://www.w3.org/2000/svg" width="30" height="30" viewBox="0 0 30 30"><defs><style>.background{fill:#85bef4;}</style></defs><rect class="background" x="0.5" y="0.5" width="29" height="29"/><path d="M29,1V29H1V1H29m1-1H0V30H30V0Z"/><rect x="11.13" y="22.5" width="13.99" height="3" rx="0.75"/><rect x="11.13" y="16.51" width="13.99" height="3" rx="0.75"/><circle cx="7.13" cy="18.01" r="2.25"/><circle cx="7.13" cy="24" r="2.25"/><path d="M4.64,8.71v0A5.19,5.19,0,0,1,10,3.57a5.14,5.14,0,0,1,5.33,5.08v0A5.19,5.19,0,0,1,10,13.79,5.14,5.14,0,0,1,4.64,8.71Zm7.4,0v0A2.1,2.1,0,0,0,10,6.47,2.06,2.06,0,0,0,8,8.65v0A2.1,2.1,0,0,0,10,10.89,2.07,2.07,0,0,0,12,8.71Z"/></svg>
