<svg xmlns="http://www.w3.org/2000/svg" width="30" height="30" viewBox="0 0 30 30"><defs><style>.background{fill:#85bef4;}</style></defs><rect class="background" x="0.5" y="0.5" width="29" height="29"/><path d="M29,1V29H1V1H29m1-1H0V30H30V0Z"/><path d="M12.11,16.34l2.82-2.8a.24.24,0,0,0,0-.33l-.55-.56a.25.25,0,0,0-.34,0L12,14.72,11,13.8a.24.24,0,0,0-.33,0l-.56.56a.24.24,0,0,0,0,.33l1.63,1.65A.24.24,0,0,0,12.11,16.34Zm9.22-9.78H17.81a2.81,2.81,0,1,0-5.62,0H8.67A2.12,2.12,0,0,0,6.56,8.67V24.14a2.11,2.11,0,0,0,2.11,2.11H21.33a2.11,2.11,0,0,0,2.11-2.11V8.67A2.12,2.12,0,0,0,21.33,6.56ZM15,5.86a.71.71,0,1,1-.7.7A.7.7,0,0,1,15,5.86Zm6.33,17.93a.35.35,0,0,1-.35.35H9a.35.35,0,0,1-.35-.35V9A.35.35,0,0,1,9,8.67h1.76v1.41a.71.71,0,0,0,.7.7h7a.71.71,0,0,0,.7-.7V8.67H21a.35.35,0,0,1,.35.35Zm-9.85-5.63a1.06,1.06,0,1,0,1.06,1.06A1.05,1.05,0,0,0,11.48,18.16Zm7.39-3.86H16.09a2.07,2.07,0,0,1-.17.24L14.75,15.7h4.12a.35.35,0,0,0,.35-.35v-.7A.35.35,0,0,0,18.87,14.3Zm0,4.22H14a.35.35,0,0,0-.36.35v.7a.36.36,0,0,0,.36.35h4.92a.35.35,0,0,0,.35-.35v-.7A.35.35,0,0,0,18.87,18.52Z"/></svg>
